<svg width="13" height="22" viewBox="0 0 13 22" fill="none" xmlns="http://www.w3.org/2000/svg">
<path d="M1.48352 11.3604C1.38549 11.2661 1.33008 11.136 1.33008 11C1.33008 10.864 1.38549 10.7338 1.48352 10.6396L11.2948 1.20562C11.4393 1.06669 11.6528 1.02747 11.8373 1.10599C12.0217 1.18451 12.1414 1.36559 12.1414 1.56604L12.1414 4.55346C12.1414 4.68946 12.086 4.8196 11.988 4.91387L5.65838 11L11.988 17.0861C12.086 17.1804 12.1414 17.3105 12.1414 17.4465L12.1414 20.434C12.1414 20.6344 12.0217 20.8155 11.8373 20.894C11.6528 20.9725 11.4393 20.9333 11.2948 20.7944L1.48352 11.3604Z" fill="white" stroke="white" stroke-linejoin="round"/>
</svg>
