<svg width="13" height="22" viewBox="0 0 13 22" fill="none" xmlns="http://www.w3.org/2000/svg">
<path d="M11.5165 11.3604C11.6145 11.2661 11.6699 11.136 11.6699 11C11.6699 10.864 11.6145 10.7338 11.5165 10.6396L1.70516 1.20562C1.56067 1.06669 1.34717 1.02747 1.16274 1.10599C0.978311 1.18451 0.858601 1.36559 0.858601 1.56604L0.858601 4.55346C0.858601 4.68946 0.914008 4.8196 1.01205 4.91387L7.34162 11L1.01205 17.0861C0.914009 17.1804 0.858602 17.3105 0.858602 17.4465L0.858603 20.434C0.858603 20.6344 0.978313 20.8155 1.16274 20.894C1.34717 20.9725 1.56067 20.9333 1.70516 20.7944L11.5165 11.3604Z" fill="white" stroke="white" stroke-linejoin="round"/>
</svg>
