<svg width="79" height="79" viewBox="0 0 79 79" fill="none" xmlns="http://www.w3.org/2000/svg">
<path d="M27.9792 32.9166H42.7917V27.9791C42.7917 27.0706 43.5291 26.3333 44.4376 26.3333C45.3461 26.3333 46.0835 27.0706 46.0835 27.9791V34.5625C46.0835 35.471 45.3461 36.2084 44.4376 36.2084H27.9792C27.0707 36.2084 26.3333 35.471 26.3333 34.5625C26.3333 33.654 27.0707 32.9166 27.9792 32.9166Z" fill="#C8C8C8"/>
<path d="M24.6875 49.375H57.6041C58.5126 49.375 59.25 50.1124 59.25 51.0209C59.25 51.9294 58.5126 52.6668 57.6041 52.6668H24.6875C23.779 52.6668 23.0416 51.9294 23.0416 51.0209C23.0416 50.1124 23.779 49.375 24.6875 49.375Z" fill="#C8C8C8"/>
<path d="M17.5051 29.6316C19.9146 27.7092 30.9186 19.75 47.7291 19.75C50.9089 19.75 59.0229 20.0759 66.3336 23.0416H74.0625C74.7274 23.0416 75.3297 23.4433 75.5833 24.0587C75.84 24.6742 75.6985 25.3788 75.2278 25.8528L73.6181 27.4591C77.1929 30.6651 79 34.7074 79 39.5C79 45.1517 78.4897 52.6666 74.0625 52.6666C73.154 52.6666 72.4166 51.9292 72.4166 51.0207C72.4166 50.1122 73.154 49.375 74.0625 49.375C74.0756 49.3718 75.7084 48.4633 75.7084 39.5C75.7084 35.1254 73.9013 31.6625 70.1883 28.9041C69.8031 28.6178 69.5629 28.18 69.5266 27.7026C69.4904 27.2254 69.6649 26.7579 70.0039 26.4189L70.0895 26.3332H66.0079C65.7906 26.3332 65.5734 26.2905 65.3759 26.2049C58.5325 23.351 50.7543 23.0416 47.7293 23.0416C30.3031 23.0416 19.2925 32.4196 19.1839 32.5117C18.8844 32.7717 18.5025 32.9166 18.1043 32.9166C7.4294 32.9166 3.31476 39.7501 3.29177 41.1457V47.7291C3.29177 48.5882 4.55901 49.3321 4.93765 49.375H8.22927C9.13777 49.375 9.87515 50.1124 9.87515 51.0209C9.87515 51.9294 9.13777 52.6668 8.22927 52.6668H4.9375C2.94939 52.6668 0 50.593 0 47.7293V41.1459C0 38.0254 5.38851 29.8916 17.5051 29.6316Z" fill="#C8C8C8"/>
<path d="M16.4583 39.5C21.9026 39.5 26.3333 43.9306 26.3333 49.375C26.3333 54.8194 21.9026 59.25 16.4583 59.25C11.0139 59.25 6.58325 54.8194 6.58325 49.375C6.58325 43.9306 11.0137 39.5 16.4583 39.5ZM16.4583 55.9584C20.089 55.9584 23.0416 53.0058 23.0416 49.375C23.0416 45.7442 20.089 42.7916 16.4583 42.7916C12.8275 42.7916 9.87487 45.7442 9.87487 49.375C9.87487 53.0058 12.8275 55.9584 16.4583 55.9584Z" fill="#FF2C33"/>
<path d="M65.8335 39.5C71.2779 39.5 75.7085 43.9306 75.7085 49.375C75.7085 54.8194 71.2779 59.25 65.8335 59.25C60.3891 59.25 55.9585 54.8194 55.9585 49.375C55.9585 43.9306 60.389 39.5 65.8335 39.5ZM65.8335 55.9584C69.4643 55.9584 72.4169 53.0058 72.4169 49.375C72.4169 45.7442 69.4643 42.7916 65.8335 42.7916C62.2027 42.7916 59.2501 45.7442 59.2501 49.375C59.2501 53.0058 62.2027 55.9584 65.8335 55.9584Z" fill="#FF2C33"/>
</svg>
