<svg width="54" height="55" viewBox="0 0 54 55" fill="none" xmlns="http://www.w3.org/2000/svg">
<path d="M33.0816 2.00537L33.0817 2.00537L33.0893 2.00537H33.0894V2.25537C33.7707 2.25452 34.4239 2.5278 34.9032 3.01415L33.0816 2.00537ZM33.0816 2.00537C32.3378 2.00573 31.6256 2.3061 31.1044 2.8386C31.1042 2.83885 31.1039 2.8391 31.1037 2.83935L13.2708 20.7578H4.01894C2.46614 20.7578 1.20947 22.0224 1.20947 23.5799V47.5863C1.20947 49.1437 2.46614 50.4084 4.01894 50.4084H16.5553L19.0271 52.8948C19.0271 52.8949 19.0272 52.8949 19.0272 52.895L33.0816 2.00537ZM52.7905 21.8129C52.7934 21.0589 52.4946 20.3352 51.961 19.8043C51.961 19.8043 51.961 19.8043 51.961 19.8043L35.0813 2.83865L52.5405 21.812M52.7905 21.8129L52.5405 21.812M52.7905 21.8129C52.7905 21.8128 52.7905 21.8126 52.7905 21.8124L52.5405 21.812M52.7905 21.8129C52.7891 22.5611 52.4889 23.2776 51.9567 23.8017L51.9576 23.8008L51.7804 23.6245M52.5405 21.812C52.5394 22.4941 52.2655 23.1472 51.7804 23.6245M51.7804 23.6245L51.9557 23.8027M51.7804 23.6245L51.9557 23.8027M51.9557 23.8027L47.78 27.9991M51.9557 23.8027L47.53 27.8959M47.78 27.9991V27.8959H47.53M47.78 27.9991L47.7072 28.0722L47.53 27.8959M47.78 27.9991V47.5863C47.78 49.1437 46.5233 50.4084 44.9705 50.4084H25.4807M47.53 27.8959V47.5863C47.53 49.0068 46.3841 50.1584 44.9705 50.1584H25.3769M25.4807 50.4084L25.554 50.3348L25.3769 50.1584M25.4807 50.4084L23.0047 52.8941M25.4807 50.4084H25.3769V50.1584M25.3769 50.1584L23.0047 52.8941M23.0047 52.8941L22.8259 52.7193L23.0031 52.8958L23.0038 52.895C22.4825 53.4275 21.7699 53.7279 21.0259 53.7281H21.0258H21.0193H21.019V53.4781C20.3377 53.479 19.6845 53.2057 19.2051 52.7193L23.0047 52.8941ZM32.6677 4.3994L32.6677 4.39938L16.3889 20.7578H21.7076L35.7502 6.64669L33.517 4.39925L33.5131 4.39534L33.5131 4.3953L33.505 4.38724L32.6677 4.3994ZM32.6677 4.3994L32.6698 4.39724M32.6677 4.3994L32.6698 4.39724M32.6698 4.39724C32.8977 4.16261 33.2713 4.15804 33.5049 4.3871L32.6698 4.39724ZM21.4407 51.334L21.4407 51.334L21.4369 51.338C21.3279 51.4524 21.1776 51.517 21.0205 51.5176C20.8594 51.5171 20.7052 51.4518 20.5922 51.3359L20.5908 51.3344L19.6727 50.4084H22.3624L21.4407 51.334ZM50.4033 22.2293L50.4011 22.2315L47.78 24.8656V23.5799C47.78 22.0224 46.5233 20.7578 44.9705 20.7578H34.4809L42.1346 13.0663L50.3977 21.3702L50.3995 21.372C50.5154 21.4862 50.581 21.6428 50.5808 21.8066C50.5807 21.966 50.5165 22.1184 50.4033 22.2293ZM37.3091 8.21357L40.5789 11.4995L31.3662 20.7578H24.8266L37.3091 8.21357ZM45.5736 47.5863C45.5736 47.9228 45.3024 48.1936 44.9705 48.1936H4.01894C3.68702 48.1936 3.41579 47.9228 3.41579 47.5863V35.8331H45.5736V47.5863ZM45.5736 33.6183H3.41579V28.9741H45.5736V33.6183ZM45.5736 26.7594H3.41579V23.5799C3.41579 23.2433 3.68702 22.9725 4.01894 22.9725H44.9705C45.3024 22.9725 45.5736 23.2433 45.5736 23.5799V26.7594Z" fill="#C8C8C8" stroke="#C8C8C8" stroke-width="0.5" stroke-linejoin="round"/>
<path d="M10.6421 45.752C10.7666 45.6438 10.8833 45.5265 10.991 45.4014C12.1192 46.7219 14.0577 46.9728 15.482 45.9827C16.4013 45.3367 16.9531 44.284 16.9631 43.1568C16.9631 41.2627 15.4352 39.7273 13.5505 39.7273C13.3811 39.7249 13.212 39.7393 13.0454 39.7702L13.0232 39.7762C13.0147 39.7762 13.0062 39.7762 12.9985 39.7762C12.2169 39.9067 11.5061 40.3098 10.991 40.9148C9.75818 39.4821 7.603 39.3251 6.17748 40.5641C4.75186 41.803 4.59562 43.9688 5.82854 45.4014C7.06135 46.834 9.21643 46.991 10.6421 45.752ZM13.3346 41.46C13.4058 41.4464 13.4781 41.4404 13.5505 41.442C14.4929 41.442 15.2568 42.2097 15.2568 43.1568C15.2559 43.5196 15.1383 43.8724 14.9215 44.1625C14.8908 44.2045 14.8669 44.2482 14.8319 44.2919C14.8259 44.2988 14.8174 44.3031 14.8106 44.3099C14.4883 44.6676 14.0306 44.8716 13.5505 44.8715C12.6083 44.8553 11.8574 44.0747 11.8735 43.1278C11.8878 42.2871 12.5065 41.5807 13.3346 41.46ZM8.43152 41.442C9.37394 41.442 10.1378 42.2097 10.1378 43.1568C10.1378 44.1039 9.37394 44.8715 8.43152 44.8715C7.4891 44.8715 6.72521 44.1039 6.72521 43.1568C6.72521 42.2097 7.4891 41.442 8.43152 41.442Z" fill="#FF2C33"/>
<path d="M43.0542 38.4H37.946V40.6H43.0542V38.4Z" fill="#FF2C33"/>
<path d="M36.4865 38.4H31.3784V40.6H36.4865V38.4Z" fill="#FF2C33"/>
<path d="M29.9189 38.4H24.8108V40.6H29.9189V38.4Z" fill="#FF2C33"/>
</svg>
