<svg width="54" height="55" viewBox="0 0 54 55" fill="none" xmlns="http://www.w3.org/2000/svg">
<path d="M3.48584 21.5663C2.65741 21.5663 1.98584 22.2379 1.98584 23.0663V47.7777C1.98584 48.6061 2.65741 49.2777 3.48584 49.2777H45.033C45.8614 49.2777 46.533 48.6061 46.533 47.7777V23.0663C46.533 22.2379 45.8614 21.5663 45.033 21.5663H3.48584Z" stroke="#C8C8C8" stroke-width="3" stroke-linejoin="round"/>
<path d="M13.606 21.6949L32.7646 2.06201L52.1081 21.7173L46.2614 27.4558" stroke="#C8C8C8" stroke-width="3" stroke-linejoin="round"/>
<path d="M3.21655 27.8397H45.2166" stroke="#C8C8C8" stroke-width="3"/>
<path d="M3.29614 34.6403L45.7356 34.6403" stroke="#C8C8C8" stroke-width="3"/>
<path d="M22.0151 21.6396L36.7814 6.87336" stroke="#C8C8C8" stroke-width="3"/>
<path d="M31.5171 21.4933L42.3788 10.6316" stroke="#C8C8C8" stroke-width="3"/>
<path d="M24.5273 39.3397L29.6355 39.3397" stroke="#FF2C33" stroke-width="2.5"/>
<path d="M31.095 39.3397L36.2031 39.3397" stroke="#FF2C33" stroke-width="2.5"/>
<path d="M37.6626 39.3397L42.7707 39.3397" stroke="#FF2C33" stroke-width="2.5"/>
<circle cx="8.14394" cy="42.9971" r="2.43031" stroke="#FF2C33" stroke-width="2"/>
<circle cx="13.2916" cy="42.9971" r="2.43031" stroke="#FF2C33" stroke-width="2"/>
<path d="M16.6184 49.1453L20.7501 53.296L24.9199 48.8787" stroke="#C8C8C8" stroke-width="3" stroke-linejoin="round"/>
</svg>
