<svg width="60" height="62" viewBox="0 0 60 62" fill="none" xmlns="http://www.w3.org/2000/svg">
<mask id="path-1-outside-1" maskUnits="userSpaceOnUse" x="1.36841" y="2.18005" width="57" height="57" fill="black">
<rect fill="white" x="1.36841" y="2.18005" width="57" height="57"/>
<path d="M51.3212 13.3049C46.0699 6.89069 38.2449 3.17677 29.9889 3.18013C26.0424 3.17062 22.1404 4.01935 18.5497 5.66821C18.523 5.68027 18.5064 5.70347 18.4806 5.71831C16.6565 4.66004 14.5876 4.10458 12.4823 4.10783C11.9735 4.10783 11.561 4.52321 11.561 5.03553C11.5618 6.57643 11.8551 8.10295 12.4252 9.533C0.649896 19.3056 -1.02739 36.8389 8.67894 48.6948C18.3853 60.5506 35.7995 62.2394 47.5749 52.4667C59.3502 42.694 61.0274 25.1607 51.3212 13.3049ZM22.3883 14.0397C22.028 14.344 21.6788 14.6613 21.337 14.9906C17.0456 14.0455 13.8551 10.4127 13.4489 6.00868C17.8559 6.42116 21.481 9.67807 22.3883 14.0397ZM40.444 39.3046H40.4476C39.9251 36.4202 40.7136 33.4518 42.5963 31.2151L42.9068 30.844C44.2629 29.2311 45.1595 27.2784 45.5015 25.1934C45.5015 25.1665 45.5061 25.1378 45.5098 25.1099C48.1262 32.0885 45.8284 39.9678 39.8801 44.4144C40.4713 42.7811 40.6646 41.0287 40.444 39.3046ZM43.6827 24.8947C43.3955 26.6481 42.6415 28.2903 41.5008 29.6464L41.1903 30.0175C38.9512 32.6764 38.013 36.2053 38.6334 39.6349C38.8215 41.9766 38.2597 44.3174 37.0302 46.3143C36.5082 47.2764 35.8068 48.1282 34.9644 48.8228C32.5927 50.6364 27.725 51.2812 24.9479 50.1494C24.4015 49.9172 23.8796 49.6307 23.3898 49.2941C20.7821 47.4831 18.8954 44.801 18.0642 41.7231L17.0506 38.1534C16.4057 36.0651 15.7284 30.5685 16.1532 28.4051C17.2979 22.0379 21.1713 16.5021 26.741 13.2735C28.2382 12.5852 29.8746 12.2593 31.5193 12.3217C33.3878 12.2903 35.2446 12.6243 36.9869 13.305C41.1765 15.1725 44.3627 20.696 43.679 24.8947H43.6827ZM13.4037 35.6495C13.9126 35.6495 14.3251 36.0649 14.3251 36.5772C14.3251 37.0895 13.9126 37.5049 13.4037 37.5049C12.8949 37.5049 12.4823 37.0895 12.4823 36.5772C12.4823 36.0649 12.8949 35.6495 13.4037 35.6495ZM11.561 32.8664C11.561 32.3541 11.9735 31.9387 12.4823 31.9387C12.9912 31.9387 13.4037 32.3541 13.4037 32.8664C13.4037 33.3787 12.9912 33.7941 12.4823 33.7941C11.9735 33.7941 11.561 33.3787 11.561 32.8664ZM14.3251 40.288C14.834 40.288 15.2465 40.7034 15.2465 41.2157C15.2465 41.728 14.834 42.1434 14.3251 42.1434C13.8163 42.1434 13.4037 41.728 13.4037 41.2157C13.4037 40.7034 13.8163 40.288 14.3251 40.288ZM14.7858 20.8064C14.4078 20.8032 14.0334 20.7323 13.6802 20.5967C13.4555 20.4617 13.2207 20.3445 12.9781 20.246C11.531 19.2005 11.1997 17.172 12.2381 15.715C13.2344 14.3171 15.1409 13.9444 16.5844 14.8654L16.6001 14.8775C18.0712 15.8883 18.45 17.9084 17.446 19.3897C16.846 20.275 15.8505 20.8052 14.7858 20.8064ZM13.7654 26.8044C13.1658 27.6938 12.1679 28.2269 11.1003 28.2279C9.3192 28.2279 7.87537 26.7742 7.87537 24.981C7.87537 23.1878 9.3192 21.7341 11.1003 21.7341C11.4783 21.7372 11.8527 21.8082 12.2059 21.9437C12.4306 22.0787 12.6654 22.1959 12.908 22.2944C14.3817 23.3014 14.7656 25.3205 13.7654 26.8044ZM16.12 22.4762C16.0196 22.7007 15.9201 22.9243 15.8252 23.1525C15.7533 22.962 15.6699 22.7761 15.5755 22.5959C15.7592 22.5666 15.9409 22.5265 16.12 22.4762ZM19.7337 16.4666C19.7853 16.4842 19.8379 16.4991 19.8904 16.5158C19.8489 16.5631 19.8102 16.6085 19.7697 16.6605C19.7614 16.5955 19.7476 16.5306 19.7337 16.4666ZM39.7382 55.0606C36.6431 56.3325 33.3319 56.9866 29.989 56.9865C15.7446 56.9907 4.1937 45.3679 4.18955 31.0261C4.18725 23.4123 7.50393 16.1811 13.262 11.2454C13.5246 11.6833 13.8147 12.1039 14.1308 12.5043C11.36 12.8635 9.40304 15.4162 9.75974 18.206C9.8376 18.8151 10.0243 19.405 10.3107 19.9472C7.54413 20.3732 5.64432 22.9768 6.06759 25.7623C6.49074 28.5479 9.07664 30.4607 11.8432 30.0345C12.7139 29.9005 13.5347 29.5403 14.2249 28.9895C14.1853 29.5006 14.1743 30.0758 14.1862 30.6908C13.7031 30.2998 13.1024 30.0856 12.4826 30.0832C10.9559 30.0832 9.71839 31.3292 9.71839 32.8663C8.19175 32.8663 6.9542 34.1123 6.9542 35.6494C6.9542 37.1865 8.19175 38.4325 9.71839 38.4325C10.1945 38.4297 10.6618 38.3018 11.0738 38.0614C11.3998 38.5774 11.8855 38.9709 12.4559 39.1811C11.3314 40.2131 11.2507 41.9675 12.2756 43.0997C13.3005 44.2319 15.043 44.3131 16.1676 43.2812C16.293 43.166 16.4077 43.0395 16.51 42.903C17.5317 46.1296 19.5912 48.9219 22.3636 50.8395C22.9571 51.2479 23.5907 51.5939 24.2543 51.872C25.5558 52.3622 26.9376 52.6005 28.3269 52.5743C31.0772 52.6299 33.7787 51.839 36.0703 50.307C37.0485 49.5118 37.8712 48.5404 38.4964 47.4423C38.5725 47.4235 38.6459 47.3947 38.7147 47.3569C47.68 42.4993 51.0367 31.244 46.2121 22.2174C45.991 21.8036 45.7543 21.3986 45.5027 21.0029C45.4198 20.8778 45.3071 20.7756 45.1746 20.7061C44.0963 16.7442 41.3869 13.4357 37.7298 11.6146C34.6615 10.2444 29.0336 9.92437 25.8622 11.6462C25.2135 12.0014 24.5848 12.3922 23.9788 12.8169C23.3355 10.5357 22.0346 8.49792 20.2407 6.96131C33.4326 1.54043 48.4914 7.91336 53.8756 21.1955C59.2598 34.4777 52.9301 49.6396 39.7382 55.0606ZM10.6396 35.6495C10.6396 36.1618 10.227 36.5772 9.71816 36.5772C9.20932 36.5772 8.79676 36.1618 8.79676 35.6495C8.79676 35.1372 9.20932 34.7218 9.71816 34.7218C10.227 34.7218 10.6396 35.1371 10.6396 35.6495Z"/>
</mask>
<path d="M51.3212 13.3049C46.0699 6.89069 38.2449 3.17677 29.9889 3.18013C26.0424 3.17062 22.1404 4.01935 18.5497 5.66821C18.523 5.68027 18.5064 5.70347 18.4806 5.71831C16.6565 4.66004 14.5876 4.10458 12.4823 4.10783C11.9735 4.10783 11.561 4.52321 11.561 5.03553C11.5618 6.57643 11.8551 8.10295 12.4252 9.533C0.649896 19.3056 -1.02739 36.8389 8.67894 48.6948C18.3853 60.5506 35.7995 62.2394 47.5749 52.4667C59.3502 42.694 61.0274 25.1607 51.3212 13.3049ZM22.3883 14.0397C22.028 14.344 21.6788 14.6613 21.337 14.9906C17.0456 14.0455 13.8551 10.4127 13.4489 6.00868C17.8559 6.42116 21.481 9.67807 22.3883 14.0397ZM40.444 39.3046H40.4476C39.9251 36.4202 40.7136 33.4518 42.5963 31.2151L42.9068 30.844C44.2629 29.2311 45.1595 27.2784 45.5015 25.1934C45.5015 25.1665 45.5061 25.1378 45.5098 25.1099C48.1262 32.0885 45.8284 39.9678 39.8801 44.4144C40.4713 42.7811 40.6646 41.0287 40.444 39.3046ZM43.6827 24.8947C43.3955 26.6481 42.6415 28.2903 41.5008 29.6464L41.1903 30.0175C38.9512 32.6764 38.013 36.2053 38.6334 39.6349C38.8215 41.9766 38.2597 44.3174 37.0302 46.3143C36.5082 47.2764 35.8068 48.1282 34.9644 48.8228C32.5927 50.6364 27.725 51.2812 24.9479 50.1494C24.4015 49.9172 23.8796 49.6307 23.3898 49.2941C20.7821 47.4831 18.8954 44.801 18.0642 41.7231L17.0506 38.1534C16.4057 36.0651 15.7284 30.5685 16.1532 28.4051C17.2979 22.0379 21.1713 16.5021 26.741 13.2735C28.2382 12.5852 29.8746 12.2593 31.5193 12.3217C33.3878 12.2903 35.2446 12.6243 36.9869 13.305C41.1765 15.1725 44.3627 20.696 43.679 24.8947H43.6827ZM13.4037 35.6495C13.9126 35.6495 14.3251 36.0649 14.3251 36.5772C14.3251 37.0895 13.9126 37.5049 13.4037 37.5049C12.8949 37.5049 12.4823 37.0895 12.4823 36.5772C12.4823 36.0649 12.8949 35.6495 13.4037 35.6495ZM11.561 32.8664C11.561 32.3541 11.9735 31.9387 12.4823 31.9387C12.9912 31.9387 13.4037 32.3541 13.4037 32.8664C13.4037 33.3787 12.9912 33.7941 12.4823 33.7941C11.9735 33.7941 11.561 33.3787 11.561 32.8664ZM14.3251 40.288C14.834 40.288 15.2465 40.7034 15.2465 41.2157C15.2465 41.728 14.834 42.1434 14.3251 42.1434C13.8163 42.1434 13.4037 41.728 13.4037 41.2157C13.4037 40.7034 13.8163 40.288 14.3251 40.288ZM14.7858 20.8064C14.4078 20.8032 14.0334 20.7323 13.6802 20.5967C13.4555 20.4617 13.2207 20.3445 12.9781 20.246C11.531 19.2005 11.1997 17.172 12.2381 15.715C13.2344 14.3171 15.1409 13.9444 16.5844 14.8654L16.6001 14.8775C18.0712 15.8883 18.45 17.9084 17.446 19.3897C16.846 20.275 15.8505 20.8052 14.7858 20.8064ZM13.7654 26.8044C13.1658 27.6938 12.1679 28.2269 11.1003 28.2279C9.3192 28.2279 7.87537 26.7742 7.87537 24.981C7.87537 23.1878 9.3192 21.7341 11.1003 21.7341C11.4783 21.7372 11.8527 21.8082 12.2059 21.9437C12.4306 22.0787 12.6654 22.1959 12.908 22.2944C14.3817 23.3014 14.7656 25.3205 13.7654 26.8044ZM16.12 22.4762C16.0196 22.7007 15.9201 22.9243 15.8252 23.1525C15.7533 22.962 15.6699 22.7761 15.5755 22.5959C15.7592 22.5666 15.9409 22.5265 16.12 22.4762ZM19.7337 16.4666C19.7853 16.4842 19.8379 16.4991 19.8904 16.5158C19.8489 16.5631 19.8102 16.6085 19.7697 16.6605C19.7614 16.5955 19.7476 16.5306 19.7337 16.4666ZM39.7382 55.0606C36.6431 56.3325 33.3319 56.9866 29.989 56.9865C15.7446 56.9907 4.1937 45.3679 4.18955 31.0261C4.18725 23.4123 7.50393 16.1811 13.262 11.2454C13.5246 11.6833 13.8147 12.1039 14.1308 12.5043C11.36 12.8635 9.40304 15.4162 9.75974 18.206C9.8376 18.8151 10.0243 19.405 10.3107 19.9472C7.54413 20.3732 5.64432 22.9768 6.06759 25.7623C6.49074 28.5479 9.07664 30.4607 11.8432 30.0345C12.7139 29.9005 13.5347 29.5403 14.2249 28.9895C14.1853 29.5006 14.1743 30.0758 14.1862 30.6908C13.7031 30.2998 13.1024 30.0856 12.4826 30.0832C10.9559 30.0832 9.71839 31.3292 9.71839 32.8663C8.19175 32.8663 6.9542 34.1123 6.9542 35.6494C6.9542 37.1865 8.19175 38.4325 9.71839 38.4325C10.1945 38.4297 10.6618 38.3018 11.0738 38.0614C11.3998 38.5774 11.8855 38.9709 12.4559 39.1811C11.3314 40.2131 11.2507 41.9675 12.2756 43.0997C13.3005 44.2319 15.043 44.3131 16.1676 43.2812C16.293 43.166 16.4077 43.0395 16.51 42.903C17.5317 46.1296 19.5912 48.9219 22.3636 50.8395C22.9571 51.2479 23.5907 51.5939 24.2543 51.872C25.5558 52.3622 26.9376 52.6005 28.3269 52.5743C31.0772 52.6299 33.7787 51.839 36.0703 50.307C37.0485 49.5118 37.8712 48.5404 38.4964 47.4423C38.5725 47.4235 38.6459 47.3947 38.7147 47.3569C47.68 42.4993 51.0367 31.244 46.2121 22.2174C45.991 21.8036 45.7543 21.3986 45.5027 21.0029C45.4198 20.8778 45.3071 20.7756 45.1746 20.7061C44.0963 16.7442 41.3869 13.4357 37.7298 11.6146C34.6615 10.2444 29.0336 9.92437 25.8622 11.6462C25.2135 12.0014 24.5848 12.3922 23.9788 12.8169C23.3355 10.5357 22.0346 8.49792 20.2407 6.96131C33.4326 1.54043 48.4914 7.91336 53.8756 21.1955C59.2598 34.4777 52.9301 49.6396 39.7382 55.0606ZM10.6396 35.6495C10.6396 36.1618 10.227 36.5772 9.71816 36.5772C9.20932 36.5772 8.79676 36.1618 8.79676 35.6495C8.79676 35.1372 9.20932 34.7218 9.71816 34.7218C10.227 34.7218 10.6396 35.1371 10.6396 35.6495Z" fill="#C8C8C8"/>
<path d="M51.3212 13.3049C46.0699 6.89069 38.2449 3.17677 29.9889 3.18013C26.0424 3.17062 22.1404 4.01935 18.5497 5.66821C18.523 5.68027 18.5064 5.70347 18.4806 5.71831C16.6565 4.66004 14.5876 4.10458 12.4823 4.10783C11.9735 4.10783 11.561 4.52321 11.561 5.03553C11.5618 6.57643 11.8551 8.10295 12.4252 9.533C0.649896 19.3056 -1.02739 36.8389 8.67894 48.6948C18.3853 60.5506 35.7995 62.2394 47.5749 52.4667C59.3502 42.694 61.0274 25.1607 51.3212 13.3049ZM22.3883 14.0397C22.028 14.344 21.6788 14.6613 21.337 14.9906C17.0456 14.0455 13.8551 10.4127 13.4489 6.00868C17.8559 6.42116 21.481 9.67807 22.3883 14.0397ZM40.444 39.3046H40.4476C39.9251 36.4202 40.7136 33.4518 42.5963 31.2151L42.9068 30.844C44.2629 29.2311 45.1595 27.2784 45.5015 25.1934C45.5015 25.1665 45.5061 25.1378 45.5098 25.1099C48.1262 32.0885 45.8284 39.9678 39.8801 44.4144C40.4713 42.7811 40.6646 41.0287 40.444 39.3046ZM43.6827 24.8947C43.3955 26.6481 42.6415 28.2903 41.5008 29.6464L41.1903 30.0175C38.9512 32.6764 38.013 36.2053 38.6334 39.6349C38.8215 41.9766 38.2597 44.3174 37.0302 46.3143C36.5082 47.2764 35.8068 48.1282 34.9644 48.8228C32.5927 50.6364 27.725 51.2812 24.9479 50.1494C24.4015 49.9172 23.8796 49.6307 23.3898 49.2941C20.7821 47.4831 18.8954 44.801 18.0642 41.7231L17.0506 38.1534C16.4057 36.0651 15.7284 30.5685 16.1532 28.4051C17.2979 22.0379 21.1713 16.5021 26.741 13.2735C28.2382 12.5852 29.8746 12.2593 31.5193 12.3217C33.3878 12.2903 35.2446 12.6243 36.9869 13.305C41.1765 15.1725 44.3627 20.696 43.679 24.8947H43.6827ZM13.4037 35.6495C13.9126 35.6495 14.3251 36.0649 14.3251 36.5772C14.3251 37.0895 13.9126 37.5049 13.4037 37.5049C12.8949 37.5049 12.4823 37.0895 12.4823 36.5772C12.4823 36.0649 12.8949 35.6495 13.4037 35.6495ZM11.561 32.8664C11.561 32.3541 11.9735 31.9387 12.4823 31.9387C12.9912 31.9387 13.4037 32.3541 13.4037 32.8664C13.4037 33.3787 12.9912 33.7941 12.4823 33.7941C11.9735 33.7941 11.561 33.3787 11.561 32.8664ZM14.3251 40.288C14.834 40.288 15.2465 40.7034 15.2465 41.2157C15.2465 41.728 14.834 42.1434 14.3251 42.1434C13.8163 42.1434 13.4037 41.728 13.4037 41.2157C13.4037 40.7034 13.8163 40.288 14.3251 40.288ZM14.7858 20.8064C14.4078 20.8032 14.0334 20.7323 13.6802 20.5967C13.4555 20.4617 13.2207 20.3445 12.9781 20.246C11.531 19.2005 11.1997 17.172 12.2381 15.715C13.2344 14.3171 15.1409 13.9444 16.5844 14.8654L16.6001 14.8775C18.0712 15.8883 18.45 17.9084 17.446 19.3897C16.846 20.275 15.8505 20.8052 14.7858 20.8064ZM13.7654 26.8044C13.1658 27.6938 12.1679 28.2269 11.1003 28.2279C9.3192 28.2279 7.87537 26.7742 7.87537 24.981C7.87537 23.1878 9.3192 21.7341 11.1003 21.7341C11.4783 21.7372 11.8527 21.8082 12.2059 21.9437C12.4306 22.0787 12.6654 22.1959 12.908 22.2944C14.3817 23.3014 14.7656 25.3205 13.7654 26.8044ZM16.12 22.4762C16.0196 22.7007 15.9201 22.9243 15.8252 23.1525C15.7533 22.962 15.6699 22.7761 15.5755 22.5959C15.7592 22.5666 15.9409 22.5265 16.12 22.4762ZM19.7337 16.4666C19.7853 16.4842 19.8379 16.4991 19.8904 16.5158C19.8489 16.5631 19.8102 16.6085 19.7697 16.6605C19.7614 16.5955 19.7476 16.5306 19.7337 16.4666ZM39.7382 55.0606C36.6431 56.3325 33.3319 56.9866 29.989 56.9865C15.7446 56.9907 4.1937 45.3679 4.18955 31.0261C4.18725 23.4123 7.50393 16.1811 13.262 11.2454C13.5246 11.6833 13.8147 12.1039 14.1308 12.5043C11.36 12.8635 9.40304 15.4162 9.75974 18.206C9.8376 18.8151 10.0243 19.405 10.3107 19.9472C7.54413 20.3732 5.64432 22.9768 6.06759 25.7623C6.49074 28.5479 9.07664 30.4607 11.8432 30.0345C12.7139 29.9005 13.5347 29.5403 14.2249 28.9895C14.1853 29.5006 14.1743 30.0758 14.1862 30.6908C13.7031 30.2998 13.1024 30.0856 12.4826 30.0832C10.9559 30.0832 9.71839 31.3292 9.71839 32.8663C8.19175 32.8663 6.9542 34.1123 6.9542 35.6494C6.9542 37.1865 8.19175 38.4325 9.71839 38.4325C10.1945 38.4297 10.6618 38.3018 11.0738 38.0614C11.3998 38.5774 11.8855 38.9709 12.4559 39.1811C11.3314 40.2131 11.2507 41.9675 12.2756 43.0997C13.3005 44.2319 15.043 44.3131 16.1676 43.2812C16.293 43.166 16.4077 43.0395 16.51 42.903C17.5317 46.1296 19.5912 48.9219 22.3636 50.8395C22.9571 51.2479 23.5907 51.5939 24.2543 51.872C25.5558 52.3622 26.9376 52.6005 28.3269 52.5743C31.0772 52.6299 33.7787 51.839 36.0703 50.307C37.0485 49.5118 37.8712 48.5404 38.4964 47.4423C38.5725 47.4235 38.6459 47.3947 38.7147 47.3569C47.68 42.4993 51.0367 31.244 46.2121 22.2174C45.991 21.8036 45.7543 21.3986 45.5027 21.0029C45.4198 20.8778 45.3071 20.7756 45.1746 20.7061C44.0963 16.7442 41.3869 13.4357 37.7298 11.6146C34.6615 10.2444 29.0336 9.92437 25.8622 11.6462C25.2135 12.0014 24.5848 12.3922 23.9788 12.8169C23.3355 10.5357 22.0346 8.49792 20.2407 6.96131C33.4326 1.54043 48.4914 7.91336 53.8756 21.1955C59.2598 34.4777 52.9301 49.6396 39.7382 55.0606ZM10.6396 35.6495C10.6396 36.1618 10.227 36.5772 9.71816 36.5772C9.20932 36.5772 8.79676 36.1618 8.79676 35.6495C8.79676 35.1372 9.20932 34.7218 9.71816 34.7218C10.227 34.7218 10.6396 35.1371 10.6396 35.6495Z" stroke="#C8C8C8" stroke-width="0.6" mask="url(#path-1-outside-1)"/>
<path d="M41.697 26.6441L37.7414 22.6615L40.7756 19.6066C41.1292 19.2381 41.119 18.6509 40.753 18.2949C40.396 17.9477 39.8299 17.9477 39.4727 18.2949L36.4386 21.3498L32.213 17.0954L33.4044 15.8959C33.758 15.5273 33.7479 14.9401 33.3818 14.5841C33.0248 14.2368 32.4586 14.2368 32.1015 14.5841L30.9102 15.7836L29.7188 14.5841C29.3528 14.2282 28.7694 14.2384 28.416 14.6069C28.0711 14.9664 28.0711 15.5364 28.416 15.8959L29.6073 17.0954L25.3818 21.3498L23.269 19.2226C22.903 18.8667 22.3197 18.8769 21.9662 19.2454C21.6214 19.6049 21.6214 20.1749 21.9662 20.5343L24.079 22.6615L19.8534 26.916L18.6621 25.7164C18.296 25.3606 17.7127 25.3708 17.3592 25.7393C17.0144 26.0988 17.0144 26.6687 17.3592 27.0282L18.5506 28.2277L18.2806 28.4995C17.9146 28.8554 17.9044 29.4428 18.2579 29.8113C18.6114 30.1798 19.1947 30.19 19.5608 29.8341C19.5685 29.8267 19.576 29.8191 19.5835 29.8113L19.8534 29.5395L24.079 33.7939L19.8534 38.0483L19.5835 37.7765C19.2174 37.4205 18.6342 37.4307 18.2806 37.7992C17.9358 38.1587 17.9358 38.7287 18.2806 39.0883L18.5506 39.3601L18.2806 39.6319C17.9146 39.9878 17.9044 40.5751 18.258 40.9437C18.6115 41.3122 19.1949 41.3224 19.5609 40.9664C19.5686 40.959 19.5761 40.9513 19.5835 40.9437L19.8534 40.6718L24.079 44.9263L23.809 45.1981C23.443 45.554 23.4328 46.1413 23.7864 46.5098C24.1399 46.8784 24.7232 46.8886 25.0893 46.5326C25.097 46.5251 25.1045 46.5175 25.1118 46.5098L25.3818 46.238L28.416 49.2929C28.782 49.6488 29.3652 49.6387 29.7188 49.2702C30.0637 48.9107 30.0637 48.3408 29.7188 47.9812L26.6847 44.9263L30.9102 40.6718L34.8657 44.6544C35.2318 45.0104 35.815 45.0002 36.1686 44.6317C36.5135 44.2722 36.5135 43.7022 36.1686 43.3427L32.213 39.3601L36.4386 35.1057L36.7085 35.3775C37.0746 35.7335 37.6578 35.7233 38.0114 35.3547C38.3563 34.9953 38.3563 34.4252 38.0114 34.0657L37.7414 33.7939L38.0114 33.5221C38.365 33.1536 38.3548 32.5663 37.9888 32.2103C37.6318 31.863 37.0656 31.863 36.7085 32.2103L36.4386 32.4821L32.213 28.2277L36.4386 23.9733L40.3941 27.9559C40.7601 28.3119 41.3434 28.3017 41.697 27.9332C42.0419 27.5736 42.0419 27.0036 41.697 26.6441ZM21.1563 28.2277L25.3818 23.9733L29.6073 28.2277L25.3818 32.4821L21.1563 28.2277ZM25.3818 43.6145L21.1563 39.3601L25.3818 35.1057L29.6073 39.3601L25.3818 43.6145ZM35.1357 33.7939L30.9102 38.0483L26.6847 33.7939L30.9102 29.5395L35.1357 33.7939ZM30.9102 26.916L26.6847 22.6615L30.9102 18.4071L35.1357 22.6615L30.9102 26.916Z" fill="#FF2C33"/>
</svg>
