<svg width="49" height="49" viewBox="0 0 49 49" fill="none" xmlns="http://www.w3.org/2000/svg">
<path d="M17.8748 12.25V34.7082C17.8748 34.7083 17.8748 34.7083 17.8748 34.7083C17.8744 36.3959 17.3172 38.0362 16.2896 39.3749C15.262 40.7135 13.8214 41.6758 12.1912 42.1123C10.561 42.5488 8.83235 42.4352 7.27328 41.7892C5.71421 41.1431 4.41187 40.0007 3.56822 38.5391C2.72458 37.0775 2.38677 35.3783 2.60719 33.7052C2.82761 32.032 3.59394 30.4783 4.78733 29.285C5.98073 28.0918 7.5345 27.3256 9.20769 27.1054C10.8809 26.8852 12.58 27.2232 14.0415 28.067L14.7915 28.5V27.634V6.625H40.3332V34.7082C40.3332 34.7083 40.3332 34.7083 40.3332 34.7083C40.3328 36.3959 39.7756 38.0362 38.748 39.3749C37.7203 40.7135 36.2797 41.6758 34.6495 42.1123C33.0194 42.5488 31.2907 42.4352 29.7316 41.7892C28.1725 41.1431 26.8702 40.0007 26.0266 38.5391C25.1829 37.0775 24.8451 35.3783 25.0655 33.7052C25.2859 32.032 26.0523 30.4783 27.2457 29.285C28.4391 28.0918 29.9928 27.3256 31.666 27.1054C33.3392 26.8852 35.0383 27.2232 36.4998 28.067L37.2498 28.5V27.634V12.25V11.75H36.7498H18.3748H17.8748V12.25Z" fill="#FFDE46" stroke="#FDC500"/>
</svg>
