<svg width="11" height="14" viewBox="0 0 11 14" fill="none" xmlns="http://www.w3.org/2000/svg">
<path d="M5.5 10.5531L8.15188 7.90188C8.67626 7.3774 9.03335 6.70922 9.17799 5.9818C9.32264 5.25439 9.24834 4.50043 8.96449 3.81524C8.68064 3.13005 8.2 2.54442 7.58332 2.13239C6.96665 1.72037 6.24166 1.50045 5.5 1.50045C4.75835 1.50045 4.03335 1.72037 3.41668 2.13239C2.80001 2.54442 2.31936 3.13005 2.03551 3.81524C1.75167 4.50043 1.67737 5.25439 1.82201 5.9818C1.96665 6.70922 2.32374 7.3774 2.84813 7.90188L5.5 10.5531ZM9.03563 8.78562L5.5 12.3212L1.96438 8.78562C1.26514 8.08635 0.788962 7.19544 0.596057 6.22554C0.403152 5.25564 0.502184 4.25032 0.880629 3.33671C1.25907 2.42309 1.89994 1.64221 2.72218 1.09282C3.54442 0.543421 4.51111 0.250183 5.5 0.250183C6.4889 0.250183 7.45559 0.543421 8.27783 1.09282C9.10007 1.64221 9.74093 2.42309 10.1194 3.33671C10.4978 4.25032 10.5969 5.25564 10.4039 6.22554C10.211 7.19544 9.73486 8.08635 9.03563 8.78562ZM1.125 12.75H9.875V14H1.125V12.75Z" fill="#FF2C33"/>
</svg>
