<svg width="13" height="12" viewBox="0 0 13 12" fill="none" xmlns="http://www.w3.org/2000/svg">
<path d="M10.875 10.5H2.125V11.125C2.125 11.2908 2.05915 11.4497 1.94194 11.5669C1.82473 11.6842 1.66576 11.75 1.5 11.75H0.875C0.70924 11.75 0.550268 11.6842 0.433058 11.5669C0.315848 11.4497 0.25 11.2908 0.25 11.125V4.875L1.8 1.2575C1.89645 1.0325 2.05685 0.840774 2.26128 0.706113C2.46572 0.571451 2.7052 0.499783 2.95 0.5H10.05C10.2946 0.500028 10.5338 0.571811 10.738 0.706457C10.9422 0.841103 11.1024 1.0327 11.1987 1.2575L12.75 4.875V11.125C12.75 11.2908 12.6842 11.4497 12.5669 11.5669C12.4497 11.6842 12.2908 11.75 12.125 11.75H11.5C11.3342 11.75 11.1753 11.6842 11.0581 11.5669C10.9408 11.4497 10.875 11.2908 10.875 11.125V10.5ZM11.5 6.125H1.5V9.25H11.5V6.125ZM1.61 4.875H11.39L10.0506 1.75H2.95L1.61063 4.875H1.61ZM3.0625 8.625C2.81386 8.625 2.5754 8.52623 2.39959 8.35041C2.22377 8.1746 2.125 7.93614 2.125 7.6875C2.125 7.43886 2.22377 7.2004 2.39959 7.02459C2.5754 6.84877 2.81386 6.75 3.0625 6.75C3.31114 6.75 3.5496 6.84877 3.72541 7.02459C3.90123 7.2004 4 7.43886 4 7.6875C4 7.93614 3.90123 8.1746 3.72541 8.35041C3.5496 8.52623 3.31114 8.625 3.0625 8.625ZM9.9375 8.625C9.68886 8.625 9.4504 8.52623 9.27459 8.35041C9.09877 8.1746 9 7.93614 9 7.6875C9 7.43886 9.09877 7.2004 9.27459 7.02459C9.4504 6.84877 9.68886 6.75 9.9375 6.75C10.1861 6.75 10.4246 6.84877 10.6004 7.02459C10.7762 7.2004 10.875 7.43886 10.875 7.6875C10.875 7.93614 10.7762 8.1746 10.6004 8.35041C10.4246 8.52623 10.1861 8.625 9.9375 8.625Z" fill="#FF2C33"/>
</svg>
