<svg width="137" height="98" viewBox="0 0 137 98" fill="none" xmlns="http://www.w3.org/2000/svg">
<path d="M136.225 0.000186591C121.888 11.0191 104.181 18.6069 84.6873 21.336V32.4395C88.4995 32.4395 89.1139 36.4053 89.1923 38.2522V83.5662H77.8931V58.3038L81.9794 53.201V44.7107C77.761 46.0321 73.2218 46.7533 68.4977 46.7533C63.7767 46.7533 59.2375 46.0321 55.0147 44.7107V53.201L59.1027 58.3038V83.5662H47.8068V38.2522C47.8838 36.4056 48.5054 32.4395 52.3146 32.4395V21.336C32.8174 18.6066 15.1099 11.0191 0.775794 0.000186591C0.769399 0.0738946 -0.893151 25.2047 27.8378 33.3863V35.291L27.8926 35.3052V77.1328C27.8926 82.9927 23.9817 83.527 22.9116 83.5662H22.6453V97.6227H114.36V83.5662H114.086C113.027 83.527 109.106 82.9924 109.106 77.1328V35.5447L109.1 33.3958L109.274 33.3499C137.892 25.1371 136.228 0.0738946 136.225 -9.15527e-05V0.000186591Z" fill="#FF0009"/>
</svg>
