<svg width="13" height="11" viewBox="0 0 13 11" fill="none" xmlns="http://www.w3.org/2000/svg">
<path d="M4 0.5H12.125V1.75H4V0.5ZM1.8125 2.0625C1.56386 2.0625 1.3254 1.96373 1.14959 1.78791C0.973772 1.6121 0.875 1.37364 0.875 1.125C0.875 0.876359 0.973772 0.637903 1.14959 0.462087C1.3254 0.286272 1.56386 0.1875 1.8125 0.1875C2.06114 0.1875 2.2996 0.286272 2.47541 0.462087C2.65123 0.637903 2.75 0.876359 2.75 1.125C2.75 1.37364 2.65123 1.6121 2.47541 1.78791C2.2996 1.96373 2.06114 2.0625 1.8125 2.0625ZM1.8125 6.4375C1.56386 6.4375 1.3254 6.33873 1.14959 6.16291C0.973772 5.9871 0.875 5.74864 0.875 5.5C0.875 5.25136 0.973772 5.0129 1.14959 4.83709C1.3254 4.66127 1.56386 4.5625 1.8125 4.5625C2.06114 4.5625 2.2996 4.66127 2.47541 4.83709C2.65123 5.0129 2.75 5.25136 2.75 5.5C2.75 5.74864 2.65123 5.9871 2.47541 6.16291C2.2996 6.33873 2.06114 6.4375 1.8125 6.4375ZM1.8125 10.75C1.56386 10.75 1.3254 10.6512 1.14959 10.4754C0.973772 10.2996 0.875 10.0611 0.875 9.8125C0.875 9.56386 0.973772 9.3254 1.14959 9.14959C1.3254 8.97377 1.56386 8.875 1.8125 8.875C2.06114 8.875 2.2996 8.97377 2.47541 9.14959C2.65123 9.3254 2.75 9.56386 2.75 9.8125C2.75 10.0611 2.65123 10.2996 2.47541 10.4754C2.2996 10.6512 2.06114 10.75 1.8125 10.75ZM4 4.875H12.125V6.125H4V4.875ZM4 9.25H12.125V10.5H4V9.25Z" fill="#FF0009"/>
</svg>
