<svg width="13" height="13" viewBox="0 0 13 13" fill="none" xmlns="http://www.w3.org/2000/svg">
<path d="M4.85375 5.67625C5.44021 6.70655 6.29345 7.55979 7.32375 8.14625L7.87625 7.3725C7.9651 7.24808 8.09647 7.16055 8.2455 7.12646C8.39454 7.09237 8.5509 7.11408 8.685 7.1875C9.56895 7.67058 10.5451 7.96111 11.5494 8.04C11.7061 8.05242 11.8524 8.12346 11.9591 8.23895C12.0658 8.35444 12.125 8.5059 12.125 8.66313V11.4519C12.125 11.6066 12.0677 11.7559 11.964 11.8708C11.8603 11.9856 11.7177 12.058 11.5637 12.0737C11.2325 12.1081 10.8988 12.125 10.5625 12.125C5.2125 12.125 0.875 7.7875 0.875 2.4375C0.875 2.10125 0.891875 1.7675 0.92625 1.43625C0.942034 1.28231 1.01437 1.1397 1.12924 1.03602C1.24412 0.932342 1.39338 0.874967 1.54813 0.875H4.33687C4.4941 0.87498 4.64556 0.93422 4.76105 1.04091C4.87654 1.14759 4.94758 1.29389 4.96 1.45063C5.03889 2.45487 5.32942 3.43105 5.8125 4.315C5.88592 4.4491 5.90763 4.60546 5.87354 4.7545C5.83945 4.90353 5.75192 5.0349 5.6275 5.12375L4.85375 5.67625ZM3.2775 5.26562L4.465 4.4175C4.12799 3.69006 3.89709 2.91803 3.77937 2.125H2.13125C2.1275 2.22875 2.12562 2.33312 2.12562 2.4375C2.125 7.0975 5.9025 10.875 10.5625 10.875C10.6669 10.875 10.7712 10.8731 10.875 10.8687V9.22062C10.082 9.10291 9.30994 8.87201 8.5825 8.535L7.73438 9.7225C7.39291 9.58982 7.06125 9.43318 6.74188 9.25375L6.70563 9.23312C5.47974 8.53545 4.46455 7.52026 3.76687 6.29437L3.74625 6.25812C3.56682 5.93875 3.41018 5.60709 3.2775 5.26562Z" fill="#FF2C33"/>
</svg>
